<svg width="890" height="1024" viewBox="0 0 890 1024" fill="none" xmlns="http://www.w3.org/2000/svg">
<g clip-path="url(#clip0_2383_81)">
<path d="M444.538 461.605C690.049 461.605 889.076 456.037 889.076 449.17C889.076 442.303 690.049 436.735 444.538 436.735C199.026 436.735 0 442.303 0 449.17C0 456.037 199.026 461.605 444.538 461.605Z" fill="#E6E6E6"/>
<path d="M681.445 314.432C680.884 314.44 680.323 314.448 679.754 314.448C679.185 314.448 678.623 314.44 678.062 314.432C648.305 313.756 626.736 295.163 632.226 275.655L645.613 228.067L648.997 216.025L708.973 217.048L712.618 228.828L726.966 275.194C733.04 294.809 711.472 313.756 681.445 314.432Z" fill="#3F3D56"/>
<path opacity="0.2" d="M712.617 228.828C702.391 234.674 690.79 237.685 679.012 237.551C667.234 237.417 655.704 234.143 645.613 228.067L648.997 216.025L708.973 217.048L712.617 228.828Z" fill="black"/>
<path d="M710.086 277.235C712.677 267.579 721.192 253.649 745.073 236.855C786.72 207.561 761.876 185.596 760.799 184.675C758.541 182.745 758.874 180.577 761.575 179.837C763.143 179.523 764.761 179.548 766.319 179.911C767.877 180.274 769.34 180.965 770.609 181.939C771.957 183.055 803.068 209.622 756.072 242.674C713.777 272.423 722.769 291.843 722.873 292.029C724.006 294.106 722.189 295.768 718.81 295.745C715.431 295.723 711.77 294.023 710.633 291.948C710.394 291.509 707.673 286.224 710.086 277.235Z" fill="#3F3D56"/>
<path d="M652.072 321.368C651.163 321.368 650.264 321.189 649.424 320.842C648.584 320.494 647.821 319.984 647.179 319.341C646.536 318.699 646.026 317.936 645.679 317.096C645.331 316.257 645.152 315.357 645.152 314.448V284.46C645.152 282.624 645.881 280.864 647.179 279.566C648.477 278.269 650.237 277.54 652.072 277.54C653.908 277.54 655.668 278.269 656.966 279.566C658.263 280.864 658.992 282.624 658.992 284.46V314.448C658.993 315.357 658.814 316.257 658.466 317.096C658.118 317.936 657.608 318.699 656.966 319.341C656.323 319.984 655.56 320.494 654.721 320.842C653.881 321.189 652.981 321.368 652.072 321.368Z" fill="#3F3D56"/>
<path d="M658.14 250.175C657.76 251.001 657.221 251.744 656.554 252.361C655.887 252.978 655.105 253.458 654.253 253.774C653.401 254.089 652.495 254.233 651.586 254.198C650.678 254.163 649.786 253.949 648.96 253.57L621.717 241.035C620.052 240.267 618.76 238.869 618.125 237.148C617.489 235.428 617.563 233.525 618.33 231.859C619.096 230.193 620.493 228.899 622.213 228.262C623.933 227.625 625.835 227.697 627.502 228.462L654.745 240.996C655.571 241.376 656.314 241.914 656.931 242.581C657.549 243.248 658.029 244.03 658.344 244.883C658.659 245.735 658.803 246.641 658.768 247.549C658.733 248.457 658.52 249.35 658.14 250.175Z" fill="#3F3D56"/>
<path d="M701.367 250.175C701.747 251.001 702.286 251.743 702.952 252.361C703.619 252.978 704.401 253.458 705.254 253.773C706.106 254.089 707.012 254.233 707.92 254.198C708.828 254.163 709.721 253.949 710.546 253.569L737.789 241.035C739.457 240.268 740.751 238.87 741.388 237.149C742.024 235.427 741.951 233.523 741.184 231.856C740.416 230.189 739.018 228.894 737.297 228.258C735.575 227.621 733.672 227.694 732.004 228.462L704.761 240.996C703.936 241.376 703.193 241.914 702.576 242.581C701.958 243.248 701.478 244.03 701.163 244.882C700.848 245.735 700.704 246.641 700.739 247.549C700.774 248.457 700.987 249.35 701.367 250.175Z" fill="#3F3D56"/>
<path d="M707.435 321.368C708.343 321.368 709.243 321.189 710.083 320.842C710.922 320.494 711.685 319.984 712.328 319.341C712.971 318.699 713.48 317.936 713.828 317.096C714.176 316.257 714.355 315.357 714.355 314.448V284.46C714.355 282.624 713.626 280.864 712.328 279.566C711.03 278.269 709.27 277.54 707.435 277.54C705.599 277.54 703.839 278.269 702.541 279.566C701.243 280.864 700.514 282.624 700.514 284.46V314.448C700.514 315.357 700.693 316.257 701.041 317.096C701.389 317.936 701.898 318.699 702.541 319.341C703.184 319.984 703.947 320.494 704.786 320.842C705.626 321.189 706.526 321.368 707.435 321.368Z" fill="#3F3D56"/>
<path d="M736.355 127.226C736.953 126.473 737.385 125.601 737.622 124.669C737.859 123.737 737.895 122.765 737.729 121.818L733.962 99.6605L730.196 77.5035C729.993 76.3072 729.478 75.1855 728.704 74.2511C727.929 73.3167 726.923 72.6027 725.785 72.1806C724.647 71.7586 723.419 71.6434 722.222 71.8468C721.026 72.0501 719.904 72.5648 718.97 73.3391L701.665 87.6794L691.239 96.3189C684.286 95.0825 677.179 94.9753 670.192 96.0015L660.149 87.6794L642.843 73.3391C641.909 72.5648 640.787 72.0502 639.591 71.8468C638.395 71.6434 637.166 71.7586 636.028 72.1806C634.89 72.6027 633.884 73.3168 633.109 74.2511C632.335 75.1855 631.821 76.3072 631.617 77.5035L627.851 99.6605L624.084 121.818C623.883 122.982 623.987 124.179 624.386 125.291C617.931 135.186 614.246 146.63 613.713 158.432C613.18 170.235 615.819 181.964 621.356 192.4C626.893 202.837 635.125 211.599 645.195 217.776C655.266 223.953 666.808 227.318 678.621 227.522C690.433 227.726 702.085 224.762 712.363 218.937C722.641 213.111 731.171 204.639 737.065 194.4C742.959 184.161 746.002 172.53 745.877 160.716C745.752 148.902 742.464 137.338 736.355 127.226Z" fill="#3F3D56"/>
<path d="M641.109 82.4187C640.699 82.4193 640.292 82.4932 639.908 82.6368C639.342 82.8426 638.842 83.1952 638.458 83.6583C638.074 84.1215 637.82 84.6785 637.723 85.2721L633.156 112.142C633.055 112.734 633.112 113.342 633.321 113.906C633.53 114.469 633.884 114.967 634.346 115.351C634.809 115.734 635.364 115.989 635.957 116.089C636.549 116.19 637.157 116.133 637.721 115.924L663.274 106.445C663.837 106.236 664.335 105.882 664.719 105.42C665.102 104.957 665.357 104.402 665.457 103.81C665.558 103.217 665.501 102.609 665.292 102.046C665.083 101.483 664.73 100.984 664.267 100.601L643.281 83.2105C642.672 82.7004 641.904 82.4202 641.109 82.4187Z" fill="#E6E6E6"/>
<path d="M720.704 82.4187C719.91 82.4202 719.141 82.7004 718.532 83.2105L697.547 100.601C697.084 100.984 696.731 101.483 696.522 102.046C696.313 102.609 696.256 103.217 696.357 103.81C696.457 104.402 696.712 104.957 697.095 105.42C697.479 105.882 697.977 106.236 698.54 106.445L724.093 115.924C724.657 116.133 725.265 116.19 725.857 116.089C726.449 115.989 727.005 115.734 727.467 115.351C727.93 114.967 728.284 114.469 728.493 113.906C728.702 113.342 728.759 112.734 728.658 112.142L724.091 85.2721C723.993 84.6785 723.74 84.1215 723.356 83.6583C722.972 83.1952 722.472 82.8426 721.906 82.6368C721.522 82.4932 721.115 82.4193 720.704 82.4187Z" fill="#E6E6E6"/>
<path d="M679.753 179.886C684.849 179.886 688.981 175.755 688.981 170.659C688.981 165.563 684.849 161.432 679.753 161.432C674.657 161.432 670.526 165.563 670.526 170.659C670.526 175.755 674.657 179.886 679.753 179.886Z" fill="#E6E6E6"/>
<path d="M679.753 168.352C683.151 168.352 685.905 167.319 685.905 166.045C685.905 164.771 683.151 163.739 679.753 163.739C676.356 163.739 673.602 164.771 673.602 166.045C673.602 167.319 676.356 168.352 679.753 168.352Z" fill="#3F3D56"/>
<path d="M675.14 176.042H683.598V186.422C683.598 186.977 683.488 187.527 683.276 188.04C683.063 188.553 682.752 189.02 682.359 189.412C681.966 189.805 681.5 190.117 680.987 190.329C680.474 190.542 679.924 190.651 679.369 190.651C678.247 190.651 677.171 190.206 676.378 189.412C675.585 188.619 675.14 187.544 675.14 186.422L675.14 176.042Z" fill="#FF6584"/>
<path d="M680.267 71.3809C679.823 72.3006 679.393 73.2303 678.988 74.1791C674.216 85.3082 672.606 97.5381 674.337 109.523C675.202 108.267 676.112 106.958 677.038 105.635C675.056 94.1328 676.17 82.3102 680.267 71.3809Z" fill="#3F3D56"/>
<path d="M687.187 79.8389C686.744 80.7586 686.313 81.6883 685.908 82.6371C681.136 93.7662 679.527 105.996 681.257 117.981C682.123 116.725 683.033 115.416 683.958 114.093C681.976 102.591 683.091 90.7682 687.187 79.8389Z" fill="#3F3D56"/>
<path d="M708.523 245.89L707.548 233.492L706.573 221.094C706.521 220.424 706.293 219.781 705.912 219.227C705.532 218.674 705.013 218.23 704.407 217.941C703.801 217.652 703.129 217.528 702.46 217.58C701.79 217.633 701.147 217.861 700.593 218.241L690.344 225.284L682.859 230.428C682.381 229.868 681.786 229.418 681.118 229.109C680.449 228.801 679.721 228.641 678.984 228.641C678.248 228.641 677.52 228.801 676.851 229.109C676.182 229.418 675.588 229.868 675.11 230.428L667.625 225.284L657.376 218.241C656.822 217.861 656.179 217.633 655.509 217.58C654.84 217.527 654.168 217.652 653.562 217.941C652.956 218.23 652.437 218.674 652.057 219.227C651.676 219.781 651.448 220.424 651.396 221.094L650.421 233.492L649.446 245.89C649.393 246.559 649.518 247.231 649.807 247.837C650.096 248.443 650.54 248.962 651.093 249.342C651.646 249.723 652.29 249.951 652.96 250.003C653.629 250.056 654.3 249.931 654.906 249.642L666.131 244.288L675.354 239.888C675.828 240.369 676.393 240.75 677.017 241.011C677.64 241.272 678.309 241.406 678.984 241.406C679.66 241.406 680.329 241.272 680.952 241.011C681.575 240.75 682.141 240.369 682.615 239.888L691.838 244.288L703.062 249.642C703.668 249.931 704.34 250.056 705.009 250.003C705.679 249.951 706.322 249.723 706.876 249.343C707.429 248.962 707.873 248.443 708.162 247.837C708.451 247.231 708.576 246.559 708.523 245.89Z" fill="#1447E6"/>
<path d="M667.451 162.97C668.725 162.97 669.758 161.937 669.758 160.663C669.758 159.389 668.725 158.356 667.451 158.356C666.177 158.356 665.144 159.389 665.144 160.663C665.144 161.937 666.177 162.97 667.451 162.97Z" fill="#E6E6E6"/>
<path d="M692.056 162.97C693.33 162.97 694.363 161.937 694.363 160.663C694.363 159.389 693.33 158.356 692.056 158.356C690.782 158.356 689.75 159.389 689.75 160.663C689.75 161.937 690.782 162.97 692.056 162.97Z" fill="#E6E6E6"/>
<path d="M233.426 294.053C233.987 294.061 234.548 294.068 235.117 294.068C235.686 294.068 236.247 294.061 236.809 294.053C266.566 293.376 288.135 274.784 282.644 255.276L269.257 207.687L265.874 195.646L205.898 196.669L202.253 208.449L187.905 254.815C181.831 274.43 203.399 293.376 233.426 294.053Z" fill="#3F3D56"/>
<path opacity="0.2" d="M202.253 208.449C212.48 214.294 224.081 217.305 235.859 217.172C247.637 217.038 259.167 213.764 269.258 207.687L265.874 195.646L205.898 196.669L202.253 208.449Z" fill="black"/>
<path d="M197.5 251.215C191.026 243.596 177.37 234.65 148.6 229.689C98.4222 221.033 111.479 190.55 112.058 189.257C113.273 186.546 112.044 184.73 109.287 185.216C107.735 185.604 106.283 186.319 105.03 187.313C103.777 188.308 102.751 189.559 102.021 190.982C101.28 192.567 84.529 229.892 141.148 239.655C192.105 248.445 192.287 269.845 192.274 270.058C192.138 272.42 194.492 273.144 197.536 271.678C200.581 270.212 203.161 267.109 203.301 264.747C203.329 264.248 203.528 258.307 197.5 251.215Z" fill="#3F3D56"/>
<path d="M262.798 300.989C263.707 300.989 264.607 300.81 265.447 300.462C266.286 300.114 267.049 299.604 267.692 298.962C268.334 298.319 268.844 297.556 269.192 296.717C269.54 295.877 269.719 294.977 269.719 294.068V264.08C269.716 262.246 268.986 260.488 267.689 259.192C266.391 257.896 264.632 257.168 262.798 257.168C260.964 257.168 259.205 257.896 257.908 259.192C256.61 260.488 255.88 262.246 255.878 264.08V294.068C255.878 294.977 256.057 295.877 256.405 296.717C256.752 297.556 257.262 298.319 257.905 298.962C258.547 299.604 259.31 300.114 260.15 300.462C260.99 300.81 261.889 300.989 262.798 300.989Z" fill="#3F3D56"/>
<path d="M256.731 229.796C257.111 230.621 257.649 231.364 258.316 231.981C258.983 232.599 259.765 233.079 260.617 233.394C261.47 233.709 262.376 233.853 263.284 233.818C264.192 233.783 265.084 233.57 265.91 233.19L293.153 220.656C293.98 220.277 294.723 219.738 295.342 219.071C295.96 218.404 296.441 217.622 296.757 216.77C297.073 215.917 297.217 215.01 297.182 214.101C297.148 213.193 296.934 212.3 296.554 211.473C296.174 210.647 295.635 209.904 294.967 209.286C294.3 208.669 293.517 208.189 292.664 207.874C291.811 207.559 290.904 207.415 289.995 207.451C289.087 207.487 288.194 207.701 287.368 208.082L260.125 220.616C259.299 220.996 258.557 221.535 257.939 222.202C257.322 222.869 256.842 223.651 256.527 224.503C256.212 225.355 256.067 226.261 256.102 227.17C256.137 228.078 256.351 228.97 256.731 229.796Z" fill="#3F3D56"/>
<path d="M213.503 229.796C213.123 230.621 212.585 231.364 211.918 231.981C211.251 232.599 210.469 233.079 209.617 233.394C208.764 233.709 207.858 233.853 206.95 233.818C206.042 233.783 205.149 233.57 204.324 233.19L177.081 220.656C176.254 220.277 175.511 219.738 174.892 219.071C174.274 218.404 173.793 217.622 173.477 216.77C173.161 215.917 173.017 215.01 173.051 214.101C173.086 213.193 173.3 212.3 173.68 211.473C174.06 210.647 174.599 209.904 175.267 209.286C175.934 208.669 176.717 208.189 177.57 207.874C178.423 207.559 179.33 207.415 180.239 207.451C181.147 207.487 182.04 207.701 182.866 208.082L210.109 220.616C210.934 220.996 211.677 221.535 212.295 222.202C212.912 222.869 213.392 223.651 213.707 224.503C214.022 225.355 214.167 226.261 214.132 227.17C214.097 228.078 213.883 228.97 213.503 229.796Z" fill="#3F3D56"/>
<path d="M207.436 300.989C206.527 300.989 205.627 300.81 204.788 300.462C203.948 300.114 203.185 299.604 202.542 298.962C201.9 298.319 201.39 297.556 201.042 296.717C200.695 295.877 200.516 294.977 200.516 294.068V264.08C200.518 262.246 201.248 260.488 202.545 259.192C203.843 257.896 205.602 257.168 207.436 257.168C209.27 257.168 211.029 257.896 212.326 259.192C213.624 260.488 214.354 262.246 214.356 264.08V294.068C214.356 294.977 214.177 295.877 213.83 296.717C213.482 297.556 212.972 298.319 212.329 298.962C211.687 299.604 210.924 300.114 210.084 300.462C209.245 300.81 208.345 300.989 207.436 300.989Z" fill="#3F3D56"/>
<path d="M290.484 104.912C290.883 103.799 290.987 102.602 290.786 101.438L287.019 79.2809L283.253 57.1239C283.05 55.9276 282.535 54.8059 281.761 53.8715C280.986 52.9371 279.98 52.2231 278.842 51.801C277.704 51.379 276.475 51.2638 275.279 51.4672C274.083 51.6705 272.961 52.1852 272.027 52.9595L254.721 67.2998L244.679 75.6219C237.691 74.5957 230.584 74.7029 223.631 75.9393L213.206 67.2998L195.9 52.9595C194.966 52.1852 193.844 51.6705 192.648 51.4672C191.451 51.2638 190.223 51.3789 189.085 51.801C187.947 52.223 186.941 52.9371 186.166 53.8715C185.392 54.8058 184.877 55.9276 184.674 57.1239L180.908 79.2809L177.141 101.438C176.975 102.385 177.011 103.357 177.248 104.289C177.485 105.222 177.917 106.093 178.515 106.846C172.398 116.961 169.104 128.53 168.975 140.349C168.846 152.169 171.887 163.807 177.781 174.053C183.676 184.298 192.209 192.777 202.491 198.606C212.774 204.435 224.432 207.402 236.25 207.198C248.069 206.994 259.616 203.626 269.692 197.445C279.767 191.264 288.002 182.496 293.539 172.052C299.076 161.609 301.713 149.873 301.176 138.065C300.639 126.257 296.947 114.809 290.484 104.912Z" fill="#3F3D56"/>
<path d="M271.589 62.8311L250.604 80.2209C250.141 80.6042 249.787 81.1033 249.578 81.6665C249.369 82.2297 249.312 82.838 249.413 83.4302C249.514 84.0224 249.769 84.5777 250.152 85.0402C250.535 85.5028 251.033 85.8563 251.597 86.0652L277.15 95.5446C277.713 95.7536 278.322 95.8106 278.914 95.7099C279.506 95.6093 280.062 95.3545 280.524 94.9712C280.987 94.5879 281.34 94.0895 281.549 93.5262C281.758 92.963 281.815 92.3546 281.715 91.7623L277.147 64.8927C277.05 64.2991 276.796 63.7421 276.412 63.2789C276.028 62.8158 275.528 62.4632 274.963 62.2574C274.578 62.1138 274.171 62.0399 273.761 62.0393C272.967 62.0408 272.198 62.321 271.589 62.8311Z" fill="#E6E6E6"/>
<path d="M192.964 62.2574C192.399 62.4632 191.899 62.8158 191.515 63.2789C191.131 63.7421 190.877 64.2991 190.78 64.8927L186.212 91.7623C186.112 92.3546 186.169 92.963 186.378 93.5262C186.587 94.0895 186.94 94.5879 187.403 94.9712C187.866 95.3545 188.421 95.6093 189.013 95.7099C189.606 95.8106 190.214 95.7536 190.777 95.5446L216.33 86.0652C216.894 85.8563 217.392 85.5028 217.775 85.0402C218.158 84.5777 218.413 84.0224 218.514 83.4302C218.615 82.838 218.558 82.2297 218.349 81.6665C218.14 81.1033 217.786 80.605 217.324 80.2217L196.338 62.8311C195.729 62.321 194.96 62.0408 194.166 62.0393C193.756 62.0399 193.349 62.1138 192.964 62.2574Z" fill="#E6E6E6"/>
<path d="M235.117 159.506C240.213 159.506 244.344 155.375 244.344 150.279C244.344 145.183 240.213 141.052 235.117 141.052C230.021 141.052 225.89 145.183 225.89 150.279C225.89 155.375 230.021 159.506 235.117 159.506Z" fill="#E6E6E6"/>
<path d="M235.117 147.973C238.515 147.973 241.269 146.94 241.269 145.666C241.269 144.392 238.515 143.359 235.117 143.359C231.72 143.359 228.966 144.392 228.966 145.666C228.966 146.94 231.72 147.973 235.117 147.973Z" fill="#3F3D56"/>
<path d="M235.501 170.271C234.946 170.271 234.396 170.162 233.883 169.95C233.37 169.737 232.904 169.426 232.511 169.033C232.118 168.64 231.807 168.174 231.594 167.661C231.382 167.148 231.272 166.598 231.272 166.042V155.662H239.73V166.042C239.73 166.598 239.621 167.148 239.409 167.661C239.196 168.174 238.885 168.64 238.492 169.033C238.099 169.426 237.633 169.737 237.12 169.95C236.607 170.162 236.057 170.271 235.501 170.271Z" fill="#FF6584"/>
<path d="M234.604 51.0012C235.047 51.921 235.478 52.8507 235.883 53.7994C240.655 64.9286 242.264 77.1585 240.533 89.1432C239.668 87.8872 238.758 86.5785 237.832 85.2555C239.814 73.7532 238.7 61.9306 234.604 51.0012Z" fill="#3F3D56"/>
<path d="M227.683 59.4595C228.127 60.3792 228.557 61.3089 228.962 62.2577C233.734 73.3868 235.344 85.6167 233.613 97.6015C232.747 96.3454 231.838 95.0368 230.912 93.7138C232.894 82.2114 231.78 70.3888 227.683 59.4595Z" fill="#3F3D56"/>
<path d="M206.347 90.9486L207.322 78.5505L208.297 66.1524C208.35 65.483 208.578 64.8392 208.958 64.2858C209.338 63.7324 209.857 63.2888 210.463 62.9997C211.07 62.7106 211.741 62.5861 212.41 62.6387C213.08 62.6914 213.724 62.9193 214.277 63.2996L224.527 70.3429L232.011 75.4862C232.49 74.9261 233.084 74.4764 233.753 74.168C234.421 73.8596 235.149 73.7 235.886 73.7C236.622 73.7 237.35 73.8596 238.019 74.168C238.688 74.4764 239.282 74.9261 239.76 75.4862L247.245 70.3429L257.495 63.2996C258.048 62.9193 258.692 62.6914 259.361 62.6387C260.031 62.5861 260.702 62.7106 261.308 62.9997C261.914 63.2888 262.433 63.7324 262.814 64.2858C263.194 64.8392 263.422 65.483 263.475 66.1524L264.449 78.5505L265.424 90.9486C265.477 91.618 265.352 92.2894 265.063 92.8955C264.774 93.5015 264.331 94.0208 263.777 94.4011C263.224 94.7814 262.58 95.0093 261.911 95.0619C261.241 95.1146 260.57 94.9901 259.964 94.7009L248.739 89.3462L239.517 84.9464C239.042 85.4273 238.477 85.809 237.853 86.0696C237.23 86.3302 236.561 86.4644 235.886 86.4644C235.21 86.4644 234.541 86.3302 233.918 86.0696C233.295 85.809 232.729 85.4273 232.255 84.9464L223.032 89.3462L211.808 94.701C211.202 94.9901 210.53 95.1146 209.861 95.062C209.191 95.0094 208.548 94.7814 207.994 94.4011C207.441 94.0208 206.997 93.5015 206.708 92.8955C206.419 92.2894 206.295 91.618 206.347 90.9486Z" fill="#1447E6"/>
<path d="M245.113 140.283C245.113 141.557 246.146 140.283 247.42 140.283C248.694 140.283 249.726 141.557 249.726 140.283C249.725 139.672 249.481 139.087 249.049 138.655C248.617 138.224 248.031 137.981 247.42 137.981C246.809 137.981 246.223 138.224 245.79 138.655C245.358 139.087 245.114 139.672 245.113 140.283Z" fill="#E6E6E6"/>
<path d="M225.121 140.283C225.121 141.557 224.088 140.283 222.814 140.283C221.54 140.283 220.507 141.557 220.507 140.283C220.509 139.672 220.752 139.087 221.185 138.655C221.617 138.224 222.203 137.981 222.814 137.981C223.425 137.981 224.011 138.224 224.444 138.655C224.876 139.087 225.12 139.672 225.121 140.283Z" fill="#E6E6E6"/>
<path d="M481.05 314.452V299.789H407.736V300.706V314.452V432.671V447.334H422.399H481.05V432.671H422.399V314.452H481.05Z" fill="#3F3D56"/>
<path d="M516.791 299.79V447.334H590.105V299.79H516.791ZM575.442 432.671H531.453V314.452H575.442V432.671Z" fill="#1447E6"/>
<path d="M313.344 432.671V300.706H298.681V432.671V447.334H313.344H371.995V432.671H313.344Z" fill="#1447E6"/>
<path d="M265.69 314.452V299.789H192.376V300.706V314.452V365.772V380.435V432.671V447.334H207.039H265.69V432.671H207.039V380.435H265.69V365.772H207.039V314.452H265.69Z" fill="#3F3D56"/>
<path d="M839.372 314.452V299.789H766.058V300.706V314.452V365.772V380.435V432.671V447.334H780.721H839.372V432.671H780.721V380.435H839.372V365.772H780.721V314.452H839.372Z" fill="#1447E6"/>
<path d="M142.889 300.706V421.891L104.228 383.231L104.14 383.32L104.058 383.238L64.5351 422.761V300.248H49.8721V446.876H64.5351V443.497L104.147 403.885L142.889 442.628V447.334H157.552V300.706H142.889Z" fill="#3F3D56"/>
<path d="M717.488 300.706V304.084L677.876 343.696L639.133 304.954V300.248H624.47V446.876H639.133V325.69L677.794 364.351L677.883 364.262L677.964 364.343L717.488 324.82V447.334H732.15V300.706H717.488Z" fill="#3F3D56"/>
<path d="M335.076 210.381C340.046 210.381 344.076 206.351 344.076 201.381C344.076 196.41 340.046 192.381 335.076 192.381C330.105 192.381 326.076 196.41 326.076 201.381C326.076 206.351 330.105 210.381 335.076 210.381Z" fill="#1447E6"/>
<path d="M113.076 310.381C118.046 310.381 122.076 306.351 122.076 301.381C122.076 296.41 118.046 292.381 113.076 292.381C108.105 292.381 104.076 296.41 104.076 301.381C104.076 306.351 108.105 310.381 113.076 310.381Z" fill="#1447E6"/>
<path d="M291.076 510.381C296.046 510.381 300.076 506.351 300.076 501.381C300.076 496.41 296.046 492.381 291.076 492.381C286.105 492.381 282.076 496.41 282.076 501.381C282.076 506.351 286.105 510.381 291.076 510.381Z" fill="#1447E6"/>
<path d="M517.076 237.381C522.046 237.381 526.076 233.351 526.076 228.381C526.076 223.41 522.046 219.381 517.076 219.381C512.105 219.381 508.076 223.41 508.076 228.381C508.076 233.351 512.105 237.381 517.076 237.381Z" fill="#1447E6"/>
<path d="M782.076 502.381C787.046 502.381 791.076 498.351 791.076 493.381C791.076 488.41 787.046 484.381 782.076 484.381C777.105 484.381 773.076 488.41 773.076 493.381C773.076 498.351 777.105 502.381 782.076 502.381Z" fill="#1447E6"/>
<path d="M782.076 502.381C787.046 502.381 791.076 498.351 791.076 493.381C791.076 488.41 787.046 484.381 782.076 484.381C777.105 484.381 773.076 488.41 773.076 493.381C773.076 498.351 777.105 502.381 782.076 502.381Z" fill="#1447E6"/>
<path d="M782.076 502.381C787.046 502.381 791.076 498.351 791.076 493.381C791.076 488.41 787.046 484.381 782.076 484.381C777.105 484.381 773.076 488.41 773.076 493.381C773.076 498.351 777.105 502.381 782.076 502.381Z" fill="#1447E6"/>
<path d="M791.076 266.381C796.046 266.381 800.076 262.351 800.076 257.381C800.076 252.41 796.046 248.381 791.076 248.381C786.105 248.381 782.076 252.41 782.076 257.381C782.076 262.351 786.105 266.381 791.076 266.381Z" fill="#1447E6"/>
<path d="M677.076 428.381C682.046 428.381 686.076 424.351 686.076 419.381C686.076 414.41 682.046 410.381 677.076 410.381C672.105 410.381 668.076 414.41 668.076 419.381C668.076 424.351 672.105 428.381 677.076 428.381Z" fill="#1447E6"/>
</g>
<g clip-path="url(#clip1_2383_81)">
<path d="M688.218 704.079C687.508 704.869 686.808 705.659 686.117 706.459L686.108 706.469C676.607 717.353 667.993 728.98 660.348 741.239C659.748 742.189 659.158 743.149 658.577 744.109C640.546 773.773 628.17 806.523 622.077 840.699C622.068 840.759 622.058 840.809 622.048 840.869C620.688 848.539 619.661 856.259 618.968 864.029C618.418 870.059 618.078 876.106 617.948 882.169C617.387 907.549 619.418 935.829 602.908 955.109C596.708 962.349 588.458 967.409 579.438 970.599C576.721 971.557 573.949 972.352 571.138 972.979H527.018C526.418 972.899 525.818 972.809 525.208 972.719C521.498 972.169 517.798 971.559 514.098 970.949L513.887 970.919L513.358 971.089L510.137 972.139C510.137 972.039 510.128 971.939 510.128 971.839C510.117 971.659 510.108 971.469 510.108 971.289C510.098 971.059 510.088 970.829 510.077 970.599C510.068 970.369 510.058 970.149 510.058 969.919C510.038 969.539 510.018 969.149 510.018 968.759C507.878 909.339 513.958 847.869 542.418 795.739C552.072 778.099 564.44 762.087 579.068 748.289C608.168 720.879 645.708 703.079 685.178 703.979C686.188 703.999 687.198 704.029 688.218 704.079Z" fill="#F0F0F0"/>
<path d="M688.331 705.342C644.044 727.612 606.586 764.174 583.967 808.366C579.077 817.92 574.948 828.038 573.254 838.689C571.56 849.345 573.047 859.435 576.85 869.463C580.326 878.63 584.944 887.605 586.132 897.457C587.384 907.843 583.724 917.636 576.967 925.476C568.699 935.068 557.478 941.117 546.299 946.651C533.887 952.796 520.898 958.981 512.225 970.199C511.174 971.558 509.127 969.848 510.176 968.491C525.265 948.974 551.6 944.899 569.637 929.076C578.054 921.692 584.296 911.728 583.692 900.189C583.164 890.098 578.409 880.84 574.809 871.588C571.029 861.874 569.058 852.075 570.173 841.629C571.313 830.943 575.056 820.643 579.68 811.006C590.33 789.23 604.337 769.264 621.188 751.84C640.311 731.847 662.712 715.272 687.424 702.833C688.953 702.063 689.851 704.577 688.331 705.342Z" fill="white"/>
<path d="M590.562 793.613C583.629 788.726 578.659 781.533 576.541 773.319C574.422 765.106 575.291 756.407 578.994 748.775C579.749 747.234 582.18 748.334 581.424 749.878C577.963 756.978 577.154 765.081 579.142 772.725C581.131 780.37 585.787 787.051 592.27 791.564C593.677 792.547 591.961 794.59 590.562 793.613Z" fill="white"/>
<path d="M574.475 865.047C591.587 862.244 607.013 853.094 617.678 839.423C618.734 838.067 620.782 839.777 619.727 841.13C608.602 855.337 592.529 864.826 574.716 867.704C573.018 867.977 572.786 865.319 574.475 865.047Z" fill="white"/>
<path d="M641.685 735.105C643.973 737.555 646.834 739.399 650.011 740.47C653.188 741.541 656.581 741.806 659.886 741.242C661.58 740.947 661.81 743.606 660.127 743.899C656.473 744.505 652.726 744.207 649.214 743.032C645.701 741.856 642.53 739.838 639.977 737.154C639.715 736.922 639.552 736.598 639.52 736.249C639.489 735.9 639.591 735.552 639.807 735.276C640.034 735.006 640.359 734.836 640.711 734.804C641.062 734.772 641.413 734.881 641.685 735.105Z" fill="white"/>
<path d="M811.248 867.969C810.198 868.179 809.168 868.379 808.118 868.619C808.108 868.619 808.088 868.629 808.078 868.629C793.95 871.579 780.085 875.669 766.618 880.859L766.608 880.869C765.558 881.249 764.498 881.659 763.468 882.069H763.458C731.222 894.904 701.64 913.596 676.208 937.199C676.158 937.249 676.108 937.289 676.058 937.339C676.048 937.359 676.028 937.369 676.018 937.379C675.988 937.409 675.948 937.439 675.918 937.469C665.833 946.883 656.473 957.045 647.918 967.869C647.208 968.769 646.498 969.679 645.788 970.599C645.168 971.389 644.558 972.179 643.938 972.979H508.938C509.158 972.659 509.408 972.329 509.628 972.009C509.628 971.999 509.638 971.999 509.638 971.989C509.798 971.759 509.958 971.539 510.088 971.319C510.098 971.309 510.108 971.299 510.108 971.289C510.158 971.229 510.208 971.159 510.248 971.119C510.358 970.929 510.488 970.769 510.588 970.599C510.611 970.574 510.631 970.548 510.648 970.519C513.038 967.159 515.438 963.799 517.898 960.459V960.449C517.914 960.435 517.928 960.418 517.938 960.399C517.948 960.379 517.948 960.379 517.968 960.369C536.758 934.789 557.838 910.559 581.938 890.299C582.658 889.689 583.388 889.059 584.158 888.469C595.067 879.396 606.699 871.229 618.938 864.049C618.948 864.039 618.958 864.039 618.968 864.029C625.658 860.149 632.548 856.592 639.638 853.359C657.938 845.103 677.423 839.774 697.378 837.569C697.448 837.559 697.508 837.559 697.578 837.549C697.628 837.539 697.678 837.539 697.728 837.529C737.398 833.229 777.998 841.639 808.898 866.069C809.688 866.699 810.458 867.319 811.248 867.969Z" fill="#F0F0F0"/>
<path d="M534.288 970.599C539.268 971.159 544.248 972.059 549.238 972.979H531.038C529.098 972.819 527.158 972.719 525.208 972.719C523.128 972.686 521.048 972.773 518.978 972.979H508.938C508.938 972.989 508.928 972.989 508.928 972.999V972.979C508.953 972.772 509.031 972.574 509.153 972.404C509.276 972.235 509.439 972.099 509.628 972.009C509.713 971.961 509.803 971.924 509.898 971.899C509.978 971.879 510.048 971.859 510.128 971.839C511.208 971.549 512.278 971.299 513.358 971.089C513.608 971.039 513.848 970.989 514.098 970.949C514.818 970.809 515.538 970.699 516.248 970.599C522.237 969.834 528.299 969.834 534.288 970.599Z" fill="white"/>
<path d="M810.578 869.049C809.758 868.899 808.938 868.759 808.118 868.619C790.755 865.66 773.117 864.634 755.528 865.559C754.638 865.599 753.748 865.649 752.858 865.709C728.451 867.201 704.422 872.467 681.628 881.319C681.623 881.325 681.616 881.328 681.608 881.329C681.36 881.413 681.116 881.509 680.878 881.619H680.868C675.568 883.699 670.351 885.982 665.218 888.469C655.568 893.159 646.178 898.749 638.408 906.239C632.03 912.423 627.184 920.011 624.258 928.399C623.948 929.229 623.658 930.079 623.378 930.929C623.168 931.609 622.958 932.289 622.758 932.969C620.008 942.379 618.298 952.329 613.308 960.909C611.136 964.655 608.26 967.945 604.838 970.599C603.727 971.457 602.568 972.252 601.368 972.979H595.438C597.071 972.303 598.652 971.507 600.168 970.599C603.974 968.346 607.235 965.28 609.718 961.619C615.368 953.249 617.148 942.989 619.848 933.439C620.308 931.819 620.798 930.239 621.348 928.679C624.003 920.528 628.378 913.042 634.178 906.729C641.528 898.879 650.718 892.909 660.208 887.999C666.308 884.849 672.588 881.999 678.998 879.449C679.828 879.119 680.658 878.789 681.498 878.469C722.098 863.046 766.085 858.765 808.898 866.069C809.728 866.199 810.548 866.349 811.368 866.499C813.048 866.809 812.248 869.349 810.578 869.049Z" fill="white"/>
<path d="M679.37 880.664C676.777 872.588 677.14 863.852 680.393 856.019C683.646 848.185 689.578 841.763 697.129 837.899C698.66 837.122 699.938 839.464 698.406 840.242C691.367 843.827 685.842 849.81 682.828 857.111C679.813 864.412 679.508 872.55 681.967 880.056C682.499 881.688 679.899 882.286 679.37 880.664Z" fill="white"/>
<path d="M623.517 928.014C638.868 936.079 656.693 938.061 673.44 933.566C675.099 933.119 675.705 935.717 674.048 936.163C656.612 940.808 638.066 938.708 622.11 930.281C620.59 929.477 622.005 927.214 623.517 928.014Z" fill="white"/>
<path d="M755.415 864.728C755.767 868.062 756.941 871.257 758.833 874.024C760.725 876.792 763.274 879.047 766.252 880.586C767.782 881.371 766.365 883.632 764.846 882.852C761.563 881.137 758.75 878.643 756.654 875.59C754.557 872.536 753.24 869.016 752.817 865.336C752.749 864.993 752.813 864.636 752.998 864.338C753.183 864.04 753.474 863.824 753.812 863.733C754.156 863.655 754.518 863.715 754.818 863.901C755.118 864.088 755.333 864.385 755.415 864.728Z" fill="white"/>
<path d="M535.825 778.743C535.306 778.743 534.787 778.716 534.271 778.66L419.291 766.383C418.377 766.286 417.491 766.009 416.683 765.569C415.876 765.129 415.164 764.534 414.586 763.819C414.009 763.104 413.578 762.282 413.319 761.4C413.059 760.518 412.976 759.593 413.073 758.679L414.693 743.506L414.711 743.508C415.026 741.767 415.988 740.209 417.404 739.148C418.819 738.087 420.584 737.6 422.344 737.786L537.324 750.064C540.983 750.455 544.352 752.233 546.738 755.033C549.125 757.832 550.348 761.44 550.156 765.114C549.964 768.788 548.371 772.248 545.705 774.784C543.04 777.319 539.503 778.736 535.825 778.743Z" fill="#1447E6"/>
<path d="M550.044 971.678H535.284C533.428 971.676 531.649 970.938 530.337 969.626C529.024 968.313 528.286 966.534 528.284 964.678V841.664C528.286 839.808 529.024 838.029 530.337 836.717C531.649 835.404 533.428 834.666 535.284 834.664H550.044C551.9 834.666 553.679 835.404 554.991 836.717C556.304 838.029 557.042 839.808 557.044 841.664V964.678C557.042 966.534 556.304 968.313 554.991 969.626C553.679 970.938 551.9 971.676 550.044 971.678Z" fill="#1447E6"/>
<path d="M514.852 971.678H500.092C498.236 971.676 496.457 970.938 495.144 969.626C493.832 968.313 493.094 966.534 493.092 964.678V841.664C493.094 839.808 493.832 838.029 495.144 836.717C496.457 835.404 498.236 834.666 500.092 834.664H514.852C516.708 834.666 518.487 835.404 519.799 836.717C521.111 838.029 521.85 839.808 521.852 841.664V964.678C521.85 966.534 521.111 968.313 519.799 969.626C518.487 970.938 516.708 971.676 514.852 971.678Z" fill="#1447E6"/>
<path d="M538.601 706.786C566.767 706.786 589.601 683.952 589.601 655.786C589.601 627.619 566.767 604.786 538.601 604.786C510.434 604.786 487.601 627.619 487.601 655.786C487.601 683.952 510.434 706.786 538.601 706.786Z" fill="#1447E6"/>
<path d="M510.563 677.194C507.257 677.103 503.143 676.988 499.973 674.672C499.029 673.955 498.254 673.039 497.701 671.99C497.148 670.941 496.831 669.784 496.773 668.6C496.716 667.758 496.854 666.914 497.176 666.135C497.499 665.355 497.998 664.661 498.633 664.106C500.289 662.708 502.706 662.379 505.311 663.145L502.612 643.419L504.594 643.148L507.767 666.338L506.112 665.579C504.194 664.699 501.561 664.251 499.924 665.634C499.522 665.995 499.209 666.445 499.009 666.947C498.81 667.449 498.728 667.991 498.772 668.529C498.82 669.411 499.058 670.271 499.469 671.053C499.88 671.834 500.454 672.518 501.153 673.057C503.619 674.859 506.899 675.091 510.619 675.195L510.563 677.194Z" fill="#2F2E41"/>
<path d="M492.813 645.121H482.042V647.121H492.813V645.121Z" fill="#2F2E41"/>
<path d="M526.813 645.121H516.042V647.121H526.813V645.121Z" fill="#2F2E41"/>
<path d="M422.367 847.929H92.7686C88.7385 847.924 84.8747 846.321 82.025 843.471C79.1753 840.622 77.5724 836.758 77.5679 832.728V672.129C77.5724 668.099 79.1753 664.236 82.025 661.386C84.8747 658.536 88.7385 656.933 92.7686 656.929H422.367C426.397 656.933 430.261 658.536 433.111 661.386C435.96 664.236 437.563 668.099 437.568 672.129V832.728C437.563 836.758 435.96 840.622 433.111 843.471C430.261 846.321 426.397 847.924 422.367 847.929Z" fill="#CACACA"/>
<path d="M388.339 759.429H120.16C118.421 759.426 116.725 758.887 115.304 757.885C113.883 756.883 112.806 755.467 112.22 753.83L81.8667 668.673C81.4137 667.402 81.2724 666.041 81.4548 664.704C81.6371 663.367 82.1378 662.093 82.9147 660.99C83.6915 659.886 84.7219 658.986 85.9192 658.363C87.1165 657.741 88.4457 657.415 89.795 657.413L425.024 656.945H425.035C426.43 656.945 427.804 657.292 429.032 657.953C430.26 658.614 431.305 659.57 432.073 660.734C432.841 661.899 433.307 663.236 433.431 664.625C433.556 666.015 433.333 667.413 432.783 668.695L396.087 754.32C395.438 755.837 394.358 757.13 392.981 758.038C391.603 758.946 389.989 759.43 388.339 759.429Z" fill="#E4E4E4"/>
<path d="M196.188 825.256H103.712C101.433 825.256 99.2481 824.351 97.6369 822.74C96.0257 821.129 95.1206 818.944 95.1206 816.665C95.1206 814.386 96.0257 812.201 97.6369 810.59C99.2481 808.979 101.433 808.074 103.712 808.074H196.188C198.466 808.074 200.652 808.979 202.263 810.59C203.874 812.201 204.779 814.386 204.779 816.665C204.779 818.944 203.874 821.129 202.263 822.74C200.652 824.351 198.466 825.256 196.188 825.256Z" fill="#F2F2F2"/>
<path d="M562.832 876.929H487.304C483.662 876.925 480.171 875.476 477.596 872.901C475.021 870.326 473.572 866.834 473.568 863.192V823.429C473.599 796.253 484.408 770.2 503.623 750.984C522.839 731.768 548.893 720.959 576.068 720.929H576.568V863.192C576.564 866.834 575.115 870.326 572.54 872.901C569.965 875.476 566.473 876.925 562.832 876.929Z" fill="#2F2E41"/>
<path d="M435.881 828.527C434.531 828.525 433.21 828.134 432.076 827.4C430.943 826.665 430.045 825.62 429.492 824.388L423.45 810.922C422.693 809.228 422.638 807.302 423.298 805.568C423.959 803.834 425.28 802.432 426.972 801.671L532.477 754.34C534.2 753.566 536.059 753.139 537.947 753.083C539.836 753.027 541.717 753.344 543.483 754.016C545.248 754.687 546.865 755.7 548.239 756.996C549.613 758.292 550.718 759.847 551.492 761.571C552.265 763.294 552.691 765.153 552.745 767.042C552.8 768.93 552.482 770.811 551.809 772.576C551.136 774.342 550.122 775.957 548.825 777.331C547.528 778.704 545.972 779.808 544.248 780.58L438.744 827.91C437.844 828.317 436.868 828.527 435.881 828.527Z" fill="#1447E6"/>
<path d="M540.826 649.69C541.665 647.927 542 645.967 541.793 644.026C541.587 642.085 540.848 640.239 539.657 638.692C538.429 636.967 536.858 635.513 535.043 634.422C533.228 633.331 531.208 632.626 529.108 632.35C519.016 630.897 509.224 637.088 499.197 634.781C490.025 632.671 487.08 622.48 490.442 614.45C493.912 606.16 502.253 600.322 510.56 597.593C520.028 594.431 530.339 594.952 539.44 599.05C540.518 599.552 542.112 598.705 541.644 597.356C540.259 593.366 542.005 589.132 544.998 586.362C548.33 583.276 553.115 582.12 557.512 581.67C565.85 580.871 574.263 581.79 582.233 584.37C598.36 589.499 612.331 600.945 619.808 616.207C623.64 624.163 625.802 632.82 626.159 641.644C626.517 650.467 625.063 659.271 621.887 667.511C615.083 684.91 596.807 699.785 600.573 720.199C601.375 724.211 603.158 727.962 605.764 731.116C608.369 734.271 611.715 736.731 615.504 738.276C619.374 739.793 623.568 740.295 627.688 739.737C631.807 739.178 635.716 737.576 639.043 735.084C640.705 733.852 642.201 732.41 643.492 730.793C644.679 729.296 642.57 727.159 641.371 728.672C638.82 731.998 635.345 734.498 631.38 735.86C627.416 737.222 623.138 737.385 619.081 736.329C615.025 735.272 611.37 733.043 608.573 729.921C605.776 726.798 603.962 722.921 603.358 718.773C601.843 708.941 606.58 699.353 611.627 691.265C616.812 682.955 622.544 675.073 625.73 665.709C628.545 657.269 629.668 648.356 629.036 639.48C628.404 630.605 626.029 621.941 622.046 613.985C614.258 598.609 600.028 587.092 583.749 581.71C575.702 579.02 567.201 577.949 558.738 578.561C550.259 579.22 540.125 582.638 538.362 592.192C537.969 594.179 538.103 596.234 538.751 598.154L540.954 596.46C524.361 588.741 502.274 592.724 490.962 607.671C485.566 614.8 483.904 625.032 489.798 632.425C496.275 640.546 507.533 638.239 516.292 636.37C521.805 635.194 528.46 633.849 533.584 636.998C537.164 639.199 540.37 643.961 538.236 648.176C537.365 649.894 539.952 651.415 540.826 649.69Z" fill="#2F2E41"/>
<path d="M726.458 971.789C726.459 971.945 726.428 972.1 726.368 972.245C726.309 972.389 726.221 972.52 726.111 972.631C726 972.742 725.869 972.829 725.724 972.889C725.579 972.949 725.425 972.979 725.268 972.979H77.9678C77.6522 972.979 77.3495 972.853 77.1264 972.63C76.9032 972.407 76.7778 972.104 76.7778 971.789C76.7778 971.473 76.9032 971.17 77.1264 970.947C77.3495 970.724 77.6522 970.599 77.9678 970.599H725.268C725.425 970.598 725.579 970.629 725.724 970.688C725.869 970.748 726 970.836 726.111 970.946C726.221 971.057 726.309 971.188 726.368 971.333C726.428 971.477 726.459 971.632 726.458 971.789Z" fill="#3F3D56"/>
<path d="M257.068 780.429C268.666 780.429 278.068 771.027 278.068 759.429C278.068 747.831 268.666 738.429 257.068 738.429C245.47 738.429 236.068 747.831 236.068 759.429C236.068 771.027 245.47 780.429 257.068 780.429Z" fill="#3F3D56"/>
</g>
<defs>
<clipPath id="clip0_2383_81">
<rect width="889.076" height="459.38" fill="white" transform="translate(0 51.0012)"/>
</clipPath>
<clipPath id="clip1_2383_81">
<rect width="735.52" height="394.618" fill="white" transform="translate(76.7778 578.381)"/>
</clipPath>
</defs>
</svg>
